# Blender 3.2.0
# www.blender.org
mtllib LowPolyTreePack.mtl
g Tree Type1 01 Model_Circle.003
v -12.000000 -0.006064 -12.040859
v -12.035385 -0.006064 -12.020430
v -12.035385 -0.006064 -11.979570
v -12.000000 -0.006064 -11.959141
v -11.964615 -0.006064 -11.979570
v -11.964615 -0.006064 -12.020430
v -12.000000 0.435979 -12.040859
v -12.035385 0.435979 -12.020430
v -12.035385 0.435979 -11.979570
v -12.000000 0.435979 -11.959141
v -11.964615 0.435979 -11.979570
v -11.964615 0.435979 -12.020430
v -12.000000 0.310563 -12.319295
v -12.276518 0.310563 -12.159648
v -12.276518 0.310563 -11.840352
v -12.000000 0.310563 -11.680705
v -11.723482 0.310563 -11.840352
v -11.723482 0.310563 -12.159648
v -12.032094 0.860464 -12.186742
v -12.193419 0.871811 -12.093371
v -12.193419 0.871811 -11.906629
v -12.032094 0.860464 -11.813258
v -11.870769 0.849117 -11.906629
v -11.870769 0.849117 -12.093371
v -12.045421 0.670991 -12.335709
v -12.335437 0.691390 -12.167854
v -12.335437 0.691390 -11.832146
v -12.045421 0.670991 -11.664291
v -11.755404 0.650592 -11.832146
v -11.755404 0.650592 -12.167854
v -12.020618 1.335004 -12.000000
vn 0.5000 -0.0000 -0.8660
vn 1.0000 -0.0000 -0.0000
vn 0.5000 -0.0000 0.8660
vn -0.5000 -0.0000 0.8660
vn -1.0000 -0.0000 -0.0000
vn -0.5000 -0.0000 -0.8660
vn -0.2307 -0.8872 0.3996
vn -0.4614 -0.8872 -0.0000
vn -0.2307 -0.8872 -0.3996
vn 0.2307 -0.8872 -0.3996
vn 0.4614 -0.8872 -0.0000
vn 0.2307 -0.8872 0.3996
vn 0.4910 0.2342 -0.8391
vn 0.9646 0.2638 -0.0000
vn 0.4910 0.2342 0.8391
vn -0.4892 0.1753 0.8544
vn -0.9892 0.1465 -0.0000
vn -0.4892 0.1753 -0.8544
vn -0.4520 -0.5315 0.7164
vn -0.8646 -0.5024 -0.0000
vn -0.4520 -0.5315 -0.7164
vn 0.3732 -0.5895 -0.7164
vn 0.7858 -0.6185 -0.0000
vn 0.3732 -0.5895 0.7164
vn -0.0000 -1.0000 -0.0000
vn 0.4831 0.3806 -0.7885
vn 0.9324 0.3613 -0.0000
vn 0.4831 0.3806 0.7885
vn -0.4324 0.4196 0.7981
vn -0.8983 0.4394 -0.0000
vn -0.4324 0.4196 -0.7981
vt 0.380271 0.859963
vt 0.346291 0.859963
vt 0.377995 0.885448
vt 0.346291 0.859963
vt 0.380271 0.859963
vt 0.363281 0.893943
vt 0.346291 0.859963
vt 0.380271 0.859963
vt 0.348567 0.885448
vt 0.346291 0.859963
vt 0.380271 0.859963
vt 0.348567 0.868458
vt 0.346291 0.859963
vt 0.380271 0.859963
vt 0.363281 0.859963
vt 0.346291 0.859963
vt 0.380271 0.859963
vt 0.377995 0.868458
vt 0.380271 0.893943
vt 0.346291 0.893943
vt 0.638084 0.348244
vt 0.604104 0.348244
vt 0.346291 0.893943
vt 0.380271 0.893943
vt 0.604104 0.348244
vt 0.638084 0.348244
vt 0.346291 0.893943
vt 0.380271 0.893943
vt 0.604104 0.348244
vt 0.638084 0.348244
vt 0.346291 0.893943
vt 0.380271 0.893943
vt 0.604104 0.348244
vt 0.638084 0.348244
vt 0.346291 0.893943
vt 0.380271 0.893943
vt 0.604104 0.348244
vt 0.638084 0.348244
vt 0.346291 0.893943
vt 0.380271 0.893943
vt 0.604104 0.348244
vt 0.638084 0.348244
vt 0.638084 0.382225
vt 0.604104 0.382225
vt 0.638084 0.348244
vt 0.604104 0.348244
vt 0.604104 0.382225
vt 0.638084 0.382225
vt 0.604104 0.348244
vt 0.638084 0.348244
vt 0.604104 0.382225
vt 0.638084 0.382225
vt 0.604104 0.348244
vt 0.638084 0.348244
vt 0.604104 0.382225
vt 0.638084 0.382225
vt 0.604104 0.348244
vt 0.638084 0.348244
vt 0.604104 0.382225
vt 0.638084 0.382225
vt 0.604104 0.348244
vt 0.638084 0.348244
vt 0.604104 0.382225
vt 0.638084 0.382225
vt 0.604104 0.348244
vt 0.638084 0.348244
vt 0.638084 0.382225
vt 0.604104 0.382225
vt 0.638084 0.348244
vt 0.604104 0.348244
vt 0.604104 0.382225
vt 0.638084 0.382225
vt 0.604104 0.348244
vt 0.638084 0.348244
vt 0.604104 0.382225
vt 0.638084 0.382225
vt 0.604104 0.348244
vt 0.638084 0.348244
vt 0.604104 0.382225
vt 0.638084 0.382225
vt 0.604104 0.348244
vt 0.638084 0.348244
vt 0.604104 0.382225
vt 0.638084 0.382225
vt 0.604104 0.348244
vt 0.638084 0.348244
vt 0.604104 0.382225
vt 0.638084 0.382225
vt 0.604104 0.348244
vt 0.638084 0.348244
vt 0.638084 0.382225
vt 0.604104 0.382225
vt 0.638084 0.348244
vt 0.604104 0.348244
vt 0.604104 0.382225
vt 0.638084 0.382225
vt 0.604104 0.348244
vt 0.638084 0.348244
vt 0.604104 0.382225
vt 0.638084 0.382225
vt 0.604104 0.348244
vt 0.638084 0.348244
vt 0.604104 0.382225
vt 0.638084 0.382225
vt 0.604104 0.348244
vt 0.638084 0.348244
vt 0.604104 0.382225
vt 0.638084 0.382225
vt 0.604104 0.348244
vt 0.638084 0.348244
vt 0.604104 0.382225
vt 0.638084 0.382225
vt 0.604104 0.348244
vt 0.638084 0.348244
vt 0.638084 0.382225
s 0
usemtl _trees_normal
f 6/16/1 1/1/1 7/19/1 12/39/1
f 5/13/2 6/17/2 12/40/2 11/35/2
f 4/10/3 5/14/3 11/36/3 10/31/3
f 3/7/4 4/11/4 10/32/4 9/27/4
f 2/4/5 3/8/5 9/28/5 8/23/5
f 1/2/6 2/5/6 8/24/6 7/20/6
f 12/41/7 7/21/7 13/43/7 18/63/7
f 11/37/8 12/42/8 18/64/8 17/59/8
f 10/33/9 11/38/9 17/60/9 16/55/9
f 9/29/10 10/34/10 16/56/10 15/51/10
f 8/25/11 9/30/11 15/52/11 14/47/11
f 7/22/12 8/26/12 14/48/12 13/44/12
f 18/65/13 13/45/13 19/67/13 24/87/13
f 17/61/14 18/66/14 24/88/14 23/83/14
f 16/57/15 17/62/15 23/84/15 22/79/15
f 15/53/16 16/58/16 22/80/16 21/75/16
f 14/49/17 15/54/17 21/76/17 20/71/17
f 13/46/18 14/50/18 20/72/18 19/68/18
f 24/89/19 19/69/19 25/91/19 30/111/19
f 23/85/20 24/90/20 30/112/20 29/107/20
f 22/81/21 23/86/21 29/108/21 28/103/21
f 21/77/22 22/82/22 28/104/22 27/99/22
f 20/73/23 21/78/23 27/100/23 26/95/23
f 19/70/24 20/74/24 26/96/24 25/92/24
f 2/6/25 1/3/25 6/18/25 5/15/25 4/12/25 3/9/25
f 30/113/26 25/93/26 31/115/26
f 29/109/27 30/114/27 31/115/27
f 28/105/28 29/110/28 31/115/28
f 27/101/29 28/106/29 31/115/29
f 26/97/30 27/102/30 31/115/30
f 25/94/31 26/98/31 31/115/31
